<?xml version="1.0" standalone="no"?>
<!DOCTYPE svg PUBLIC "-//W3C//DTD SVG 20010904//EN"
 "http://www.w3.org/TR/2001/REC-SVG-20010904/DTD/svg10.dtd">
<svg version="1.0" xmlns="http://www.w3.org/2000/svg"
 width="5334.000000pt" height="3334.000000pt" viewBox="0 0 5334.000000 3334.000000"
 preserveAspectRatio="xMidYMid meet">
<metadata>
Created by potrace 1.15, written by Peter Selinger 2001-2017
</metadata>
<g transform="translate(0.000000,3334.000000) scale(0.100000,-0.100000)"
fill="#000000" stroke="none">
<path d="M37443 19853 c-13 -2 -23 -9 -23 -14 0 -5 -9 -9 -20 -9 -11 0 -20 -4
-20 -10 0 -5 -9 -10 -20 -10 -11 0 -20 -4 -20 -10 0 -7 -3563 -10 -10670 -10
-7107 0 -10670 -3 -10670 -10 0 -6 -52 -10 -135 -10 l-135 0 0 -80 0 -80
10935 0 10935 0 0 125 0 125 -67 -1 c-38 -1 -78 -4 -90 -6z"/>
<path d="M9949 17787 c-368 -255 -570 -641 -655 -1252 -14 -97 -18 -231 -21
-697 l-5 -578 186 0 186 0 0 365 0 365 545 0 545 0 0 -365 0 -365 186 0 186 0
-5 548 c-3 432 -8 575 -21 682 -66 525 -209 873 -466 1131 -52 53 -128 119
-169 148 l-74 51 -186 -1 -186 0 -46 -32z m304 -353 c199 -172 337 -414 405
-709 23 -100 52 -285 52 -334 l0 -31 -530 0 c-291 0 -530 2 -530 4 0 30 36
263 51 336 46 209 132 406 241 551 54 72 221 239 239 239 4 0 36 -25 72 -56z"/>
<path d="M40600 16540 l0 -1280 595 0 595 0 0 185 0 185 -410 0 -410 0 0 1095
0 1095 -185 0 -185 0 0 -1280z"/>
<path d="M12730 16535 l0 -1276 623 3 622 3 90 28 c131 41 200 81 286 167 110
109 167 228 194 410 21 138 21 1192 0 1330 -27 182 -84 301 -194 410 -86 86
-155 126 -286 167 l-90 28 -622 3 -623 3 0 -1276z m1202 878 c88 -26 142 -63
179 -121 67 -106 78 -213 78 -757 0 -550 -11 -656 -81 -761 -38 -57 -99 -97
-183 -120 -50 -15 -121 -18 -442 -22 l-383 -4 0 907 0 907 383 -4 c348 -4 388
-6 449 -25z"/>
<path d="M15100 16535 l0 -1275 185 0 185 0 0 1275 0 1275 -185 0 -185 0 0
-1275z"/>
<path d="M16010 16535 l0 -1275 185 0 185 0 0 365 0 365 635 0 635 0 0 185 0
185 -635 0 -635 0 0 540 0 540 730 0 730 0 0 185 0 185 -915 0 -915 0 0 -1275z"/>
<path d="M18380 16535 l0 -1275 185 0 185 0 0 365 0 365 635 0 635 0 0 185 0
185 -635 0 -635 0 0 540 0 540 730 0 730 0 0 185 0 185 -915 0 -915 0 0 -1275z"/>
<path d="M20740 16535 l0 -1275 915 0 915 0 0 185 0 185 -730 0 -730 0 0 180
0 180 635 0 635 0 0 185 0 185 -635 0 -635 0 0 540 0 540 730 0 730 0 0 185 0
185 -915 0 -915 0 0 -1275z"/>
<path d="M23110 16535 l0 -1275 185 0 185 0 0 365 0 365 348 0 c407 -1 524 -9
579 -40 82 -46 106 -113 159 -455 19 -126 37 -231 38 -233 2 -1 86 -1 188 0
l184 3 -33 220 c-49 329 -101 471 -214 587 l-56 57 66 68 c152 157 201 326
201 703 0 385 -50 553 -209 710 -86 86 -155 126 -286 167 l-90 28 -622 3 -623
3 0 -1276z m1194 881 c135 -37 208 -115 242 -260 23 -98 23 -400 1 -505 -30
-137 -101 -223 -210 -256 -93 -28 -187 -34 -524 -35 l-333 0 0 541 0 540 378
-3 c329 -3 386 -6 446 -22z"/>
<path d="M25480 16535 l0 -1275 915 0 915 0 0 185 0 185 -730 0 -730 0 0 180
0 180 635 0 635 0 0 185 0 185 -635 0 -635 0 0 540 0 540 730 0 730 0 0 185 0
185 -915 0 -915 0 0 -1275z"/>
<path d="M27850 16535 l0 -1275 185 0 185 0 2 890 3 890 539 -890 538 -890
189 0 189 0 0 1275 0 1275 -185 0 -185 0 -2 -894 -3 -895 -540 894 -540 894
-187 1 -188 0 0 -1275z"/>
<path d="M30130 17625 l0 -185 410 0 410 0 0 -1095 0 -1095 185 0 185 0 0
1095 0 1095 410 0 410 0 0 185 0 185 -1005 0 -1005 0 0 -185z"/>
<path d="M33500 17090 c0 -598 3 -738 16 -832 41 -298 124 -567 261 -846 l75
-152 196 2 195 3 49 121 c26 66 65 179 85 251 l37 131 22 -87 c28 -105 81
-262 120 -353 l29 -68 192 0 192 0 38 67 c111 199 215 488 272 756 46 216 51
309 51 1039 l0 688 -184 0 -184 0 -5 -737 c-5 -781 -6 -801 -56 -1032 -20 -89
-91 -314 -113 -355 -10 -19 -11 -18 -24 5 -30 58 -97 272 -119 384 -40 200
-45 304 -45 1038 l0 697 -184 0 -184 0 -5 -742 c-3 -485 -9 -771 -16 -823 -29
-196 -82 -396 -141 -530 l-22 -50 -19 43 c-28 66 -74 207 -98 302 -53 214 -53
223 -58 1038 l-4 762 -185 0 -184 0 0 -720z"/>
<path d="M36470 17804 c-262 -48 -428 -161 -524 -355 -84 -170 -86 -184 -86
-914 0 -585 2 -637 20 -725 58 -286 246 -472 535 -531 91 -19 128 -20 395 -17
287 4 297 5 385 32 130 40 199 80 286 166 110 109 167 228 194 410 12 74 15
218 15 665 0 447 -3 591 -15 665 -27 182 -84 301 -194 410 -87 86 -156 126
-286 166 -89 27 -94 28 -395 30 -168 1 -316 0 -330 -2z m528 -374 c117 -15
182 -42 230 -94 79 -85 91 -196 91 -801 0 -605 -12 -716 -91 -801 -77 -83
-217 -110 -522 -101 -317 10 -405 53 -452 224 -18 63 -19 114 -19 678 0 564 1
615 19 678 39 143 116 196 321 220 70 9 347 6 423 -3z"/>
<path d="M38230 16535 l0 -1275 185 0 185 0 0 365 0 365 348 0 c407 -1 524 -9
579 -40 82 -46 106 -113 159 -455 19 -126 37 -231 38 -233 2 -1 86 -1 188 0
l184 3 -33 220 c-49 329 -101 471 -214 587 l-56 57 66 68 c152 157 201 326
201 703 0 385 -50 553 -209 710 -86 86 -155 126 -286 167 l-90 28 -622 3 -623
3 0 -1276z m1194 881 c135 -37 208 -115 242 -260 23 -98 23 -400 1 -505 -30
-137 -101 -223 -210 -256 -93 -28 -187 -34 -524 -35 l-333 0 0 541 0 540 378
-3 c329 -3 386 -6 446 -22z"/>
<path d="M42240 16535 l0 -1276 623 3 622 3 90 28 c131 41 200 81 286 167 110
109 167 228 194 410 21 138 21 1192 0 1330 -27 182 -84 301 -194 410 -86 86
-155 126 -286 167 l-90 28 -622 3 -623 3 0 -1276z m1202 878 c88 -26 142 -63
179 -121 67 -106 78 -213 78 -757 0 -550 -11 -656 -81 -761 -38 -57 -99 -97
-183 -120 -50 -15 -121 -18 -442 -22 l-383 -4 0 907 0 907 383 -4 c348 -4 388
-6 449 -25z"/>
</g>
</svg>
